<mxfile host="app.diagrams.net" modified="2024-05-21T03:35:52.272Z" agent="Mozilla/5.0 (Macintosh; Intel Mac OS X 10_15_7) AppleWebKit/537.36 (KHTML, like Gecko) Chrome/124.0.0.0 Safari/537.36" etag="hMmcTrIxBjSbLyvreUII" version="24.4.4" type="github">
  <diagram name="第 1 页" id="r85ycECnOaNi98OOcx7P">
    <mxGraphModel dx="1380" dy="873" grid="1" gridSize="10" guides="1" tooltips="1" connect="1" arrows="1" fold="1" page="1" pageScale="1" pageWidth="8270" pageHeight="11690" math="0" shadow="0">
      <root>
        <mxCell id="0" />
        <mxCell id="1" parent="0" />
        <mxCell id="y-nhNa7zIjn1G-8itYUi-1" value="" style="shape=ext;double=1;rounded=1;whiteSpace=wrap;html=1;" vertex="1" parent="1">
          <mxGeometry x="575" y="1030" width="1170" height="130" as="geometry" />
        </mxCell>
        <mxCell id="y-nhNa7zIjn1G-8itYUi-42" value="" style="rounded=1;whiteSpace=wrap;html=1;fillColor=#fff2cc;strokeColor=#d6b656;" vertex="1" parent="1">
          <mxGeometry x="595" y="1060" width="880" height="80" as="geometry" />
        </mxCell>
        <mxCell id="y-nhNa7zIjn1G-8itYUi-31" value="" style="shape=ext;double=1;rounded=1;whiteSpace=wrap;html=1;" vertex="1" parent="1">
          <mxGeometry x="560" y="1640" width="1175" height="130" as="geometry" />
        </mxCell>
        <mxCell id="y-nhNa7zIjn1G-8itYUi-30" value="" style="shape=ext;double=1;rounded=1;whiteSpace=wrap;html=1;" vertex="1" parent="1">
          <mxGeometry x="575" y="1250" width="1170" height="130" as="geometry" />
        </mxCell>
        <mxCell id="X3ZSe9vhs0chCLvBWA0a-21" value="" style="edgeStyle=orthogonalEdgeStyle;rounded=0;orthogonalLoop=1;jettySize=auto;html=1;" parent="1" source="X3ZSe9vhs0chCLvBWA0a-1" target="X3ZSe9vhs0chCLvBWA0a-7" edge="1">
          <mxGeometry relative="1" as="geometry">
            <Array as="points">
              <mxPoint x="330" y="180" />
              <mxPoint x="330" y="180" />
            </Array>
          </mxGeometry>
        </mxCell>
        <mxCell id="X3ZSe9vhs0chCLvBWA0a-1" value="&lt;font style=&quot;font-size: 20px;&quot;&gt;App&lt;/font&gt;" style="rounded=1;whiteSpace=wrap;html=1;fillColor=#dae8fc;strokeColor=#6c8ebf;" parent="1" vertex="1">
          <mxGeometry x="280" y="100" width="150" height="50" as="geometry" />
        </mxCell>
        <mxCell id="X3ZSe9vhs0chCLvBWA0a-13" value="" style="edgeStyle=orthogonalEdgeStyle;rounded=0;orthogonalLoop=1;jettySize=auto;html=1;" parent="1" source="X3ZSe9vhs0chCLvBWA0a-6" target="X3ZSe9vhs0chCLvBWA0a-8" edge="1">
          <mxGeometry relative="1" as="geometry">
            <Array as="points">
              <mxPoint x="380" y="440" />
              <mxPoint x="380" y="440" />
            </Array>
          </mxGeometry>
        </mxCell>
        <mxCell id="X3ZSe9vhs0chCLvBWA0a-6" value="&lt;font style=&quot;font-size: 20px;&quot;&gt;span&lt;/font&gt;" style="rounded=1;whiteSpace=wrap;html=1;fillColor=#dae8fc;strokeColor=#6c8ebf;" parent="1" vertex="1">
          <mxGeometry x="280" y="480" width="150" height="50" as="geometry" />
        </mxCell>
        <mxCell id="X3ZSe9vhs0chCLvBWA0a-15" value="" style="edgeStyle=orthogonalEdgeStyle;rounded=0;orthogonalLoop=1;jettySize=auto;html=1;" parent="1" source="X3ZSe9vhs0chCLvBWA0a-7" target="X3ZSe9vhs0chCLvBWA0a-8" edge="1">
          <mxGeometry relative="1" as="geometry">
            <Array as="points">
              <mxPoint x="330" y="330" />
              <mxPoint x="330" y="330" />
            </Array>
          </mxGeometry>
        </mxCell>
        <mxCell id="X3ZSe9vhs0chCLvBWA0a-20" value="" style="edgeStyle=orthogonalEdgeStyle;rounded=0;orthogonalLoop=1;jettySize=auto;html=1;" parent="1" source="X3ZSe9vhs0chCLvBWA0a-7" target="X3ZSe9vhs0chCLvBWA0a-1" edge="1">
          <mxGeometry relative="1" as="geometry">
            <Array as="points">
              <mxPoint x="380" y="190" />
              <mxPoint x="380" y="190" />
            </Array>
          </mxGeometry>
        </mxCell>
        <mxCell id="X3ZSe9vhs0chCLvBWA0a-7" value="&lt;span style=&quot;font-size: 20px;&quot;&gt;div&lt;/span&gt;" style="rounded=1;whiteSpace=wrap;html=1;fillColor=#dae8fc;strokeColor=#6c8ebf;" parent="1" vertex="1">
          <mxGeometry x="280" y="240" width="150" height="50" as="geometry" />
        </mxCell>
        <mxCell id="X3ZSe9vhs0chCLvBWA0a-11" value="" style="edgeStyle=orthogonalEdgeStyle;rounded=0;orthogonalLoop=1;jettySize=auto;html=1;" parent="1" source="X3ZSe9vhs0chCLvBWA0a-8" target="X3ZSe9vhs0chCLvBWA0a-10" edge="1">
          <mxGeometry relative="1" as="geometry" />
        </mxCell>
        <mxCell id="X3ZSe9vhs0chCLvBWA0a-12" value="" style="edgeStyle=orthogonalEdgeStyle;rounded=0;orthogonalLoop=1;jettySize=auto;html=1;" parent="1" source="X3ZSe9vhs0chCLvBWA0a-8" target="X3ZSe9vhs0chCLvBWA0a-6" edge="1">
          <mxGeometry relative="1" as="geometry">
            <Array as="points">
              <mxPoint x="330" y="440" />
              <mxPoint x="330" y="440" />
            </Array>
          </mxGeometry>
        </mxCell>
        <mxCell id="X3ZSe9vhs0chCLvBWA0a-16" value="" style="edgeStyle=orthogonalEdgeStyle;rounded=0;orthogonalLoop=1;jettySize=auto;html=1;" parent="1" source="X3ZSe9vhs0chCLvBWA0a-8" target="X3ZSe9vhs0chCLvBWA0a-7" edge="1">
          <mxGeometry relative="1" as="geometry">
            <Array as="points">
              <mxPoint x="380" y="330" />
              <mxPoint x="380" y="330" />
            </Array>
          </mxGeometry>
        </mxCell>
        <mxCell id="X3ZSe9vhs0chCLvBWA0a-8" value="&lt;font style=&quot;font-size: 20px;&quot;&gt;p&lt;/font&gt;" style="rounded=1;whiteSpace=wrap;html=1;fillColor=#dae8fc;strokeColor=#6c8ebf;" parent="1" vertex="1">
          <mxGeometry x="280" y="360" width="150" height="50" as="geometry" />
        </mxCell>
        <mxCell id="X3ZSe9vhs0chCLvBWA0a-18" value="" style="edgeStyle=orthogonalEdgeStyle;rounded=0;orthogonalLoop=1;jettySize=auto;html=1;" parent="1" source="X3ZSe9vhs0chCLvBWA0a-9" target="X3ZSe9vhs0chCLvBWA0a-10" edge="1">
          <mxGeometry relative="1" as="geometry">
            <Array as="points">
              <mxPoint x="620" y="450" />
              <mxPoint x="620" y="450" />
            </Array>
          </mxGeometry>
        </mxCell>
        <mxCell id="X3ZSe9vhs0chCLvBWA0a-9" value="&lt;font style=&quot;font-size: 20px;&quot;&gt;span&lt;/font&gt;" style="rounded=1;whiteSpace=wrap;html=1;fillColor=#dae8fc;strokeColor=#6c8ebf;" parent="1" vertex="1">
          <mxGeometry x="520" y="480" width="150" height="50" as="geometry" />
        </mxCell>
        <mxCell id="X3ZSe9vhs0chCLvBWA0a-17" value="" style="edgeStyle=orthogonalEdgeStyle;rounded=0;orthogonalLoop=1;jettySize=auto;html=1;" parent="1" source="X3ZSe9vhs0chCLvBWA0a-10" target="X3ZSe9vhs0chCLvBWA0a-9" edge="1">
          <mxGeometry relative="1" as="geometry">
            <Array as="points">
              <mxPoint x="570" y="440" />
              <mxPoint x="570" y="440" />
            </Array>
          </mxGeometry>
        </mxCell>
        <mxCell id="X3ZSe9vhs0chCLvBWA0a-19" style="edgeStyle=orthogonalEdgeStyle;rounded=0;orthogonalLoop=1;jettySize=auto;html=1;entryX=1;entryY=0.5;entryDx=0;entryDy=0;" parent="1" source="X3ZSe9vhs0chCLvBWA0a-10" target="X3ZSe9vhs0chCLvBWA0a-7" edge="1">
          <mxGeometry relative="1" as="geometry">
            <Array as="points">
              <mxPoint x="595" y="265" />
            </Array>
          </mxGeometry>
        </mxCell>
        <mxCell id="X3ZSe9vhs0chCLvBWA0a-10" value="&lt;font style=&quot;font-size: 20px;&quot;&gt;p&lt;/font&gt;" style="rounded=1;whiteSpace=wrap;html=1;fillColor=#dae8fc;strokeColor=#6c8ebf;" parent="1" vertex="1">
          <mxGeometry x="520" y="360" width="150" height="50" as="geometry" />
        </mxCell>
        <mxCell id="X3ZSe9vhs0chCLvBWA0a-14" value="&lt;font style=&quot;font-size: 17px;&quot;&gt;child&lt;/font&gt;" style="text;html=1;align=center;verticalAlign=middle;resizable=0;points=[];autosize=1;strokeColor=none;fillColor=none;" parent="1" vertex="1">
          <mxGeometry x="280" y="428" width="60" height="30" as="geometry" />
        </mxCell>
        <mxCell id="X3ZSe9vhs0chCLvBWA0a-22" value="&lt;font style=&quot;font-size: 17px;&quot;&gt;child&lt;/font&gt;" style="text;html=1;align=center;verticalAlign=middle;resizable=0;points=[];autosize=1;strokeColor=none;fillColor=none;" parent="1" vertex="1">
          <mxGeometry x="280" y="180" width="60" height="30" as="geometry" />
        </mxCell>
        <mxCell id="X3ZSe9vhs0chCLvBWA0a-23" value="&lt;font style=&quot;font-size: 17px;&quot;&gt;child&lt;/font&gt;" style="text;html=1;align=center;verticalAlign=middle;resizable=0;points=[];autosize=1;strokeColor=none;fillColor=none;" parent="1" vertex="1">
          <mxGeometry x="280" y="310" width="60" height="30" as="geometry" />
        </mxCell>
        <mxCell id="X3ZSe9vhs0chCLvBWA0a-24" value="&lt;font style=&quot;font-size: 17px;&quot;&gt;child&lt;/font&gt;" style="text;html=1;align=center;verticalAlign=middle;resizable=0;points=[];autosize=1;strokeColor=none;fillColor=none;" parent="1" vertex="1">
          <mxGeometry x="510" y="428" width="60" height="30" as="geometry" />
        </mxCell>
        <mxCell id="X3ZSe9vhs0chCLvBWA0a-25" value="&lt;font style=&quot;font-size: 17px;&quot;&gt;return&lt;/font&gt;" style="text;html=1;align=center;verticalAlign=middle;resizable=0;points=[];autosize=1;strokeColor=none;fillColor=none;" parent="1" vertex="1">
          <mxGeometry x="380" y="428" width="70" height="30" as="geometry" />
        </mxCell>
        <mxCell id="X3ZSe9vhs0chCLvBWA0a-26" value="&lt;font style=&quot;font-size: 17px;&quot;&gt;return&lt;/font&gt;" style="text;html=1;align=center;verticalAlign=middle;resizable=0;points=[];autosize=1;strokeColor=none;fillColor=none;" parent="1" vertex="1">
          <mxGeometry x="370" y="180" width="70" height="30" as="geometry" />
        </mxCell>
        <mxCell id="X3ZSe9vhs0chCLvBWA0a-27" value="&lt;font style=&quot;font-size: 17px;&quot;&gt;return&lt;/font&gt;" style="text;html=1;align=center;verticalAlign=middle;resizable=0;points=[];autosize=1;strokeColor=none;fillColor=none;" parent="1" vertex="1">
          <mxGeometry x="380" y="310" width="70" height="30" as="geometry" />
        </mxCell>
        <mxCell id="X3ZSe9vhs0chCLvBWA0a-28" value="&lt;font style=&quot;font-size: 17px;&quot;&gt;return&lt;/font&gt;" style="text;html=1;align=center;verticalAlign=middle;resizable=0;points=[];autosize=1;strokeColor=none;fillColor=none;" parent="1" vertex="1">
          <mxGeometry x="610" y="428" width="70" height="30" as="geometry" />
        </mxCell>
        <mxCell id="X3ZSe9vhs0chCLvBWA0a-29" value="&lt;font style=&quot;font-size: 17px;&quot;&gt;return&lt;/font&gt;" style="text;html=1;align=center;verticalAlign=middle;resizable=0;points=[];autosize=1;strokeColor=none;fillColor=none;" parent="1" vertex="1">
          <mxGeometry x="530" y="270" width="70" height="30" as="geometry" />
        </mxCell>
        <mxCell id="X3ZSe9vhs0chCLvBWA0a-30" value="&lt;font style=&quot;font-size: 17px;&quot;&gt;sibling&lt;/font&gt;" style="text;html=1;align=center;verticalAlign=middle;resizable=0;points=[];autosize=1;strokeColor=none;fillColor=none;" parent="1" vertex="1">
          <mxGeometry x="440" y="380" width="70" height="30" as="geometry" />
        </mxCell>
        <mxCell id="y-nhNa7zIjn1G-8itYUi-2" value="" style="edgeStyle=orthogonalEdgeStyle;rounded=0;orthogonalLoop=1;jettySize=auto;html=1;" edge="1" parent="1" source="y-nhNa7zIjn1G-8itYUi-3" target="y-nhNa7zIjn1G-8itYUi-8">
          <mxGeometry relative="1" as="geometry">
            <Array as="points">
              <mxPoint x="330" y="180" />
              <mxPoint x="330" y="180" />
            </Array>
          </mxGeometry>
        </mxCell>
        <mxCell id="y-nhNa7zIjn1G-8itYUi-3" value="&lt;font style=&quot;font-size: 20px;&quot;&gt;App&lt;/font&gt;" style="rounded=1;whiteSpace=wrap;html=1;fillColor=#dae8fc;strokeColor=#6c8ebf;" vertex="1" parent="1">
          <mxGeometry x="280" y="100" width="150" height="50" as="geometry" />
        </mxCell>
        <mxCell id="y-nhNa7zIjn1G-8itYUi-4" value="" style="edgeStyle=orthogonalEdgeStyle;rounded=0;orthogonalLoop=1;jettySize=auto;html=1;" edge="1" parent="1" source="y-nhNa7zIjn1G-8itYUi-5" target="y-nhNa7zIjn1G-8itYUi-12">
          <mxGeometry relative="1" as="geometry">
            <Array as="points">
              <mxPoint x="380" y="440" />
              <mxPoint x="380" y="440" />
            </Array>
          </mxGeometry>
        </mxCell>
        <mxCell id="y-nhNa7zIjn1G-8itYUi-5" value="&lt;font style=&quot;font-size: 20px;&quot;&gt;span&lt;/font&gt;" style="rounded=1;whiteSpace=wrap;html=1;fillColor=#dae8fc;strokeColor=#6c8ebf;" vertex="1" parent="1">
          <mxGeometry x="280" y="480" width="150" height="50" as="geometry" />
        </mxCell>
        <mxCell id="y-nhNa7zIjn1G-8itYUi-6" value="" style="edgeStyle=orthogonalEdgeStyle;rounded=0;orthogonalLoop=1;jettySize=auto;html=1;" edge="1" parent="1" source="y-nhNa7zIjn1G-8itYUi-8" target="y-nhNa7zIjn1G-8itYUi-12">
          <mxGeometry relative="1" as="geometry">
            <Array as="points">
              <mxPoint x="330" y="330" />
              <mxPoint x="330" y="330" />
            </Array>
          </mxGeometry>
        </mxCell>
        <mxCell id="y-nhNa7zIjn1G-8itYUi-7" value="" style="edgeStyle=orthogonalEdgeStyle;rounded=0;orthogonalLoop=1;jettySize=auto;html=1;" edge="1" parent="1" source="y-nhNa7zIjn1G-8itYUi-8" target="y-nhNa7zIjn1G-8itYUi-3">
          <mxGeometry relative="1" as="geometry">
            <Array as="points">
              <mxPoint x="380" y="190" />
              <mxPoint x="380" y="190" />
            </Array>
          </mxGeometry>
        </mxCell>
        <mxCell id="y-nhNa7zIjn1G-8itYUi-8" value="&lt;span style=&quot;font-size: 20px;&quot;&gt;div&lt;/span&gt;" style="rounded=1;whiteSpace=wrap;html=1;fillColor=#dae8fc;strokeColor=#6c8ebf;" vertex="1" parent="1">
          <mxGeometry x="280" y="240" width="150" height="50" as="geometry" />
        </mxCell>
        <mxCell id="y-nhNa7zIjn1G-8itYUi-9" value="" style="edgeStyle=orthogonalEdgeStyle;rounded=0;orthogonalLoop=1;jettySize=auto;html=1;" edge="1" parent="1" source="y-nhNa7zIjn1G-8itYUi-12" target="y-nhNa7zIjn1G-8itYUi-17">
          <mxGeometry relative="1" as="geometry" />
        </mxCell>
        <mxCell id="y-nhNa7zIjn1G-8itYUi-10" value="" style="edgeStyle=orthogonalEdgeStyle;rounded=0;orthogonalLoop=1;jettySize=auto;html=1;" edge="1" parent="1" source="y-nhNa7zIjn1G-8itYUi-12" target="y-nhNa7zIjn1G-8itYUi-5">
          <mxGeometry relative="1" as="geometry">
            <Array as="points">
              <mxPoint x="330" y="440" />
              <mxPoint x="330" y="440" />
            </Array>
          </mxGeometry>
        </mxCell>
        <mxCell id="y-nhNa7zIjn1G-8itYUi-11" value="" style="edgeStyle=orthogonalEdgeStyle;rounded=0;orthogonalLoop=1;jettySize=auto;html=1;" edge="1" parent="1" source="y-nhNa7zIjn1G-8itYUi-12" target="y-nhNa7zIjn1G-8itYUi-8">
          <mxGeometry relative="1" as="geometry">
            <Array as="points">
              <mxPoint x="380" y="330" />
              <mxPoint x="380" y="330" />
            </Array>
          </mxGeometry>
        </mxCell>
        <mxCell id="y-nhNa7zIjn1G-8itYUi-12" value="&lt;font style=&quot;font-size: 20px;&quot;&gt;p&lt;/font&gt;" style="rounded=1;whiteSpace=wrap;html=1;fillColor=#dae8fc;strokeColor=#6c8ebf;" vertex="1" parent="1">
          <mxGeometry x="280" y="360" width="150" height="50" as="geometry" />
        </mxCell>
        <mxCell id="y-nhNa7zIjn1G-8itYUi-13" value="" style="edgeStyle=orthogonalEdgeStyle;rounded=0;orthogonalLoop=1;jettySize=auto;html=1;" edge="1" parent="1" source="y-nhNa7zIjn1G-8itYUi-14" target="y-nhNa7zIjn1G-8itYUi-17">
          <mxGeometry relative="1" as="geometry">
            <Array as="points">
              <mxPoint x="620" y="450" />
              <mxPoint x="620" y="450" />
            </Array>
          </mxGeometry>
        </mxCell>
        <mxCell id="y-nhNa7zIjn1G-8itYUi-14" value="&lt;font style=&quot;font-size: 20px;&quot;&gt;span&lt;/font&gt;" style="rounded=1;whiteSpace=wrap;html=1;fillColor=#dae8fc;strokeColor=#6c8ebf;" vertex="1" parent="1">
          <mxGeometry x="520" y="480" width="150" height="50" as="geometry" />
        </mxCell>
        <mxCell id="y-nhNa7zIjn1G-8itYUi-15" value="" style="edgeStyle=orthogonalEdgeStyle;rounded=0;orthogonalLoop=1;jettySize=auto;html=1;" edge="1" parent="1" source="y-nhNa7zIjn1G-8itYUi-17" target="y-nhNa7zIjn1G-8itYUi-14">
          <mxGeometry relative="1" as="geometry">
            <Array as="points">
              <mxPoint x="570" y="440" />
              <mxPoint x="570" y="440" />
            </Array>
          </mxGeometry>
        </mxCell>
        <mxCell id="y-nhNa7zIjn1G-8itYUi-16" style="edgeStyle=orthogonalEdgeStyle;rounded=0;orthogonalLoop=1;jettySize=auto;html=1;entryX=1;entryY=0.5;entryDx=0;entryDy=0;" edge="1" parent="1" source="y-nhNa7zIjn1G-8itYUi-17" target="y-nhNa7zIjn1G-8itYUi-8">
          <mxGeometry relative="1" as="geometry">
            <Array as="points">
              <mxPoint x="595" y="265" />
            </Array>
          </mxGeometry>
        </mxCell>
        <mxCell id="y-nhNa7zIjn1G-8itYUi-17" value="&lt;font style=&quot;font-size: 20px;&quot;&gt;p&lt;/font&gt;" style="rounded=1;whiteSpace=wrap;html=1;fillColor=#dae8fc;strokeColor=#6c8ebf;" vertex="1" parent="1">
          <mxGeometry x="520" y="360" width="150" height="50" as="geometry" />
        </mxCell>
        <mxCell id="y-nhNa7zIjn1G-8itYUi-18" value="&lt;font style=&quot;font-size: 17px;&quot;&gt;child&lt;/font&gt;" style="text;html=1;align=center;verticalAlign=middle;resizable=0;points=[];autosize=1;strokeColor=none;fillColor=none;" vertex="1" parent="1">
          <mxGeometry x="280" y="428" width="60" height="30" as="geometry" />
        </mxCell>
        <mxCell id="y-nhNa7zIjn1G-8itYUi-19" value="&lt;font style=&quot;font-size: 17px;&quot;&gt;child&lt;/font&gt;" style="text;html=1;align=center;verticalAlign=middle;resizable=0;points=[];autosize=1;strokeColor=none;fillColor=none;" vertex="1" parent="1">
          <mxGeometry x="280" y="180" width="60" height="30" as="geometry" />
        </mxCell>
        <mxCell id="y-nhNa7zIjn1G-8itYUi-20" value="&lt;font style=&quot;font-size: 17px;&quot;&gt;child&lt;/font&gt;" style="text;html=1;align=center;verticalAlign=middle;resizable=0;points=[];autosize=1;strokeColor=none;fillColor=none;" vertex="1" parent="1">
          <mxGeometry x="280" y="310" width="60" height="30" as="geometry" />
        </mxCell>
        <mxCell id="y-nhNa7zIjn1G-8itYUi-21" value="&lt;font style=&quot;font-size: 17px;&quot;&gt;child&lt;/font&gt;" style="text;html=1;align=center;verticalAlign=middle;resizable=0;points=[];autosize=1;strokeColor=none;fillColor=none;" vertex="1" parent="1">
          <mxGeometry x="510" y="428" width="60" height="30" as="geometry" />
        </mxCell>
        <mxCell id="y-nhNa7zIjn1G-8itYUi-22" value="&lt;font style=&quot;font-size: 17px;&quot;&gt;return&lt;/font&gt;" style="text;html=1;align=center;verticalAlign=middle;resizable=0;points=[];autosize=1;strokeColor=none;fillColor=none;" vertex="1" parent="1">
          <mxGeometry x="380" y="428" width="70" height="30" as="geometry" />
        </mxCell>
        <mxCell id="y-nhNa7zIjn1G-8itYUi-23" value="&lt;font style=&quot;font-size: 17px;&quot;&gt;return&lt;/font&gt;" style="text;html=1;align=center;verticalAlign=middle;resizable=0;points=[];autosize=1;strokeColor=none;fillColor=none;" vertex="1" parent="1">
          <mxGeometry x="370" y="180" width="70" height="30" as="geometry" />
        </mxCell>
        <mxCell id="y-nhNa7zIjn1G-8itYUi-24" value="&lt;font style=&quot;font-size: 17px;&quot;&gt;return&lt;/font&gt;" style="text;html=1;align=center;verticalAlign=middle;resizable=0;points=[];autosize=1;strokeColor=none;fillColor=none;" vertex="1" parent="1">
          <mxGeometry x="380" y="310" width="70" height="30" as="geometry" />
        </mxCell>
        <mxCell id="y-nhNa7zIjn1G-8itYUi-25" value="&lt;font style=&quot;font-size: 17px;&quot;&gt;return&lt;/font&gt;" style="text;html=1;align=center;verticalAlign=middle;resizable=0;points=[];autosize=1;strokeColor=none;fillColor=none;" vertex="1" parent="1">
          <mxGeometry x="610" y="428" width="70" height="30" as="geometry" />
        </mxCell>
        <mxCell id="y-nhNa7zIjn1G-8itYUi-26" value="&lt;font style=&quot;font-size: 17px;&quot;&gt;return&lt;/font&gt;" style="text;html=1;align=center;verticalAlign=middle;resizable=0;points=[];autosize=1;strokeColor=none;fillColor=none;" vertex="1" parent="1">
          <mxGeometry x="530" y="270" width="70" height="30" as="geometry" />
        </mxCell>
        <mxCell id="y-nhNa7zIjn1G-8itYUi-27" value="&lt;font style=&quot;font-size: 17px;&quot;&gt;sibling&lt;/font&gt;" style="text;html=1;align=center;verticalAlign=middle;resizable=0;points=[];autosize=1;strokeColor=none;fillColor=none;" vertex="1" parent="1">
          <mxGeometry x="440" y="380" width="70" height="30" as="geometry" />
        </mxCell>
        <mxCell id="y-nhNa7zIjn1G-8itYUi-32" value="&lt;span style=&quot;color: rgb(255, 51, 51);&quot;&gt;&lt;font style=&quot;font-size: 13px;&quot;&gt;浏览器每一帧循环&lt;/font&gt;&lt;/span&gt;" style="text;html=1;align=center;verticalAlign=middle;resizable=0;points=[];autosize=1;strokeColor=none;fillColor=none;" vertex="1" parent="1">
          <mxGeometry x="580" y="1030" width="130" height="30" as="geometry" />
        </mxCell>
        <mxCell id="y-nhNa7zIjn1G-8itYUi-37" value="" style="edgeStyle=orthogonalEdgeStyle;rounded=0;orthogonalLoop=1;jettySize=auto;html=1;" edge="1" parent="1" source="y-nhNa7zIjn1G-8itYUi-33" target="y-nhNa7zIjn1G-8itYUi-34">
          <mxGeometry relative="1" as="geometry" />
        </mxCell>
        <mxCell id="y-nhNa7zIjn1G-8itYUi-74" style="edgeStyle=orthogonalEdgeStyle;rounded=0;orthogonalLoop=1;jettySize=auto;html=1;entryX=0.5;entryY=0;entryDx=0;entryDy=0;" edge="1" parent="1">
          <mxGeometry relative="1" as="geometry">
            <mxPoint x="635" y="1130" as="sourcePoint" />
            <mxPoint x="635" y="1285" as="targetPoint" />
          </mxGeometry>
        </mxCell>
        <mxCell id="y-nhNa7zIjn1G-8itYUi-75" value="&lt;font style=&quot;font-size: 13px;&quot;&gt;发起一次scheduler调度&lt;/font&gt;" style="edgeLabel;html=1;align=center;verticalAlign=middle;resizable=0;points=[];" vertex="1" connectable="0" parent="y-nhNa7zIjn1G-8itYUi-74">
          <mxGeometry x="-0.0903" y="-2" relative="1" as="geometry">
            <mxPoint y="9" as="offset" />
          </mxGeometry>
        </mxCell>
        <mxCell id="y-nhNa7zIjn1G-8itYUi-33" value="一次宏任务" style="rounded=1;whiteSpace=wrap;html=1;" vertex="1" parent="1">
          <mxGeometry x="605" y="1070" width="120" height="60" as="geometry" />
        </mxCell>
        <mxCell id="y-nhNa7zIjn1G-8itYUi-38" value="" style="edgeStyle=orthogonalEdgeStyle;rounded=0;orthogonalLoop=1;jettySize=auto;html=1;" edge="1" parent="1" source="y-nhNa7zIjn1G-8itYUi-34" target="y-nhNa7zIjn1G-8itYUi-35">
          <mxGeometry relative="1" as="geometry" />
        </mxCell>
        <mxCell id="y-nhNa7zIjn1G-8itYUi-34" value="多次微任务" style="rounded=1;whiteSpace=wrap;html=1;" vertex="1" parent="1">
          <mxGeometry x="765" y="1070" width="120" height="60" as="geometry" />
        </mxCell>
        <mxCell id="y-nhNa7zIjn1G-8itYUi-39" value="" style="edgeStyle=orthogonalEdgeStyle;rounded=0;orthogonalLoop=1;jettySize=auto;html=1;" edge="1" parent="1" source="y-nhNa7zIjn1G-8itYUi-35" target="y-nhNa7zIjn1G-8itYUi-36">
          <mxGeometry relative="1" as="geometry" />
        </mxCell>
        <mxCell id="y-nhNa7zIjn1G-8itYUi-35" value="requestAnimationFrame" style="rounded=1;whiteSpace=wrap;html=1;" vertex="1" parent="1">
          <mxGeometry x="925" y="1070" width="180" height="60" as="geometry" />
        </mxCell>
        <mxCell id="y-nhNa7zIjn1G-8itYUi-41" value="" style="edgeStyle=orthogonalEdgeStyle;rounded=0;orthogonalLoop=1;jettySize=auto;html=1;" edge="1" parent="1" source="y-nhNa7zIjn1G-8itYUi-36" target="y-nhNa7zIjn1G-8itYUi-40">
          <mxGeometry relative="1" as="geometry" />
        </mxCell>
        <mxCell id="y-nhNa7zIjn1G-8itYUi-36" value="paint" style="rounded=1;whiteSpace=wrap;html=1;" vertex="1" parent="1">
          <mxGeometry x="1155" y="1070" width="120" height="60" as="geometry" />
        </mxCell>
        <mxCell id="y-nhNa7zIjn1G-8itYUi-40" value="requestIdelCallback" style="whiteSpace=wrap;html=1;rounded=1;" vertex="1" parent="1">
          <mxGeometry x="1325" y="1070" width="120" height="60" as="geometry" />
        </mxCell>
        <mxCell id="y-nhNa7zIjn1G-8itYUi-43" value="下一帧渲染" style="rounded=1;whiteSpace=wrap;html=1;fillColor=#fff2cc;strokeColor=#d6b656;" vertex="1" parent="1">
          <mxGeometry x="1555" y="1055" width="160" height="80" as="geometry" />
        </mxCell>
        <mxCell id="y-nhNa7zIjn1G-8itYUi-45" value="" style="html=1;shadow=0;dashed=0;align=center;verticalAlign=middle;shape=mxgraph.arrows2.arrow;dy=0.6;dx=40;notch=0;" vertex="1" parent="1">
          <mxGeometry x="1485" y="1085" width="60" height="25" as="geometry" />
        </mxCell>
        <mxCell id="y-nhNa7zIjn1G-8itYUi-59" style="edgeStyle=orthogonalEdgeStyle;rounded=0;orthogonalLoop=1;jettySize=auto;html=1;exitX=0.5;exitY=0;exitDx=0;exitDy=0;" edge="1" parent="1" source="y-nhNa7zIjn1G-8itYUi-69" target="y-nhNa7zIjn1G-8itYUi-33">
          <mxGeometry relative="1" as="geometry">
            <Array as="points">
              <mxPoint x="1570" y="1190" />
              <mxPoint x="665" y="1190" />
            </Array>
          </mxGeometry>
        </mxCell>
        <mxCell id="y-nhNa7zIjn1G-8itYUi-72" value="&lt;font style=&quot;font-size: 12px;&quot;&gt;否&lt;/font&gt;" style="edgeLabel;html=1;align=center;verticalAlign=middle;resizable=0;points=[];" vertex="1" connectable="0" parent="y-nhNa7zIjn1G-8itYUi-59">
          <mxGeometry x="-0.095" y="-2" relative="1" as="geometry">
            <mxPoint x="1" as="offset" />
          </mxGeometry>
        </mxCell>
        <mxCell id="y-nhNa7zIjn1G-8itYUi-71" value="" style="edgeStyle=orthogonalEdgeStyle;rounded=0;orthogonalLoop=1;jettySize=auto;html=1;" edge="1" parent="1" source="y-nhNa7zIjn1G-8itYUi-47" target="y-nhNa7zIjn1G-8itYUi-69">
          <mxGeometry relative="1" as="geometry" />
        </mxCell>
        <mxCell id="y-nhNa7zIjn1G-8itYUi-47" value="结束一次调度" style="rounded=1;whiteSpace=wrap;html=1;" vertex="1" parent="1">
          <mxGeometry x="1325" y="1285" width="120" height="60" as="geometry" />
        </mxCell>
        <mxCell id="y-nhNa7zIjn1G-8itYUi-78" value="" style="edgeStyle=orthogonalEdgeStyle;rounded=0;orthogonalLoop=1;jettySize=auto;html=1;" edge="1" parent="1" source="y-nhNa7zIjn1G-8itYUi-48" target="y-nhNa7zIjn1G-8itYUi-49">
          <mxGeometry relative="1" as="geometry" />
        </mxCell>
        <mxCell id="y-nhNa7zIjn1G-8itYUi-48" value="flushWork" style="rounded=1;whiteSpace=wrap;html=1;" vertex="1" parent="1">
          <mxGeometry x="605" y="1285" width="120" height="60" as="geometry" />
        </mxCell>
        <mxCell id="y-nhNa7zIjn1G-8itYUi-76" value="" style="edgeStyle=orthogonalEdgeStyle;rounded=0;orthogonalLoop=1;jettySize=auto;html=1;" edge="1" parent="1" source="y-nhNa7zIjn1G-8itYUi-49" target="y-nhNa7zIjn1G-8itYUi-50">
          <mxGeometry relative="1" as="geometry" />
        </mxCell>
        <mxCell id="y-nhNa7zIjn1G-8itYUi-82" style="edgeStyle=orthogonalEdgeStyle;rounded=0;orthogonalLoop=1;jettySize=auto;html=1;" edge="1" parent="1" source="y-nhNa7zIjn1G-8itYUi-49" target="y-nhNa7zIjn1G-8itYUi-79">
          <mxGeometry relative="1" as="geometry" />
        </mxCell>
        <mxCell id="y-nhNa7zIjn1G-8itYUi-83" value="&lt;font style=&quot;font-size: 12px;&quot;&gt;获取任务&lt;/font&gt;" style="edgeLabel;html=1;align=center;verticalAlign=middle;resizable=0;points=[];" vertex="1" connectable="0" parent="y-nhNa7zIjn1G-8itYUi-82">
          <mxGeometry x="0.1176" y="2" relative="1" as="geometry">
            <mxPoint y="1" as="offset" />
          </mxGeometry>
        </mxCell>
        <mxCell id="y-nhNa7zIjn1G-8itYUi-49" value="调度workLoop" style="rounded=1;whiteSpace=wrap;html=1;fillColor=#f8cecc;strokeColor=#b85450;" vertex="1" parent="1">
          <mxGeometry x="765" y="1285" width="120" height="60" as="geometry" />
        </mxCell>
        <mxCell id="y-nhNa7zIjn1G-8itYUi-67" value="" style="edgeStyle=orthogonalEdgeStyle;rounded=0;orthogonalLoop=1;jettySize=auto;html=1;" edge="1" parent="1" source="y-nhNa7zIjn1G-8itYUi-50" target="y-nhNa7zIjn1G-8itYUi-63">
          <mxGeometry relative="1" as="geometry" />
        </mxCell>
        <mxCell id="y-nhNa7zIjn1G-8itYUi-101" style="edgeStyle=orthogonalEdgeStyle;rounded=0;orthogonalLoop=1;jettySize=auto;html=1;" edge="1" parent="1" source="y-nhNa7zIjn1G-8itYUi-50" target="y-nhNa7zIjn1G-8itYUi-99">
          <mxGeometry relative="1" as="geometry">
            <Array as="points">
              <mxPoint x="960" y="1590" />
              <mxPoint x="715" y="1590" />
            </Array>
          </mxGeometry>
        </mxCell>
        <mxCell id="y-nhNa7zIjn1G-8itYUi-102" value="执行一次fiber构建" style="edgeLabel;html=1;align=center;verticalAlign=middle;resizable=0;points=[];" vertex="1" connectable="0" parent="y-nhNa7zIjn1G-8itYUi-101">
          <mxGeometry x="-0.4765" relative="1" as="geometry">
            <mxPoint as="offset" />
          </mxGeometry>
        </mxCell>
        <mxCell id="y-nhNa7zIjn1G-8itYUi-50" value="执行任务&lt;br&gt;task.callback" style="rounded=1;whiteSpace=wrap;html=1;" vertex="1" parent="1">
          <mxGeometry x="935" y="1285" width="120" height="60" as="geometry" />
        </mxCell>
        <mxCell id="y-nhNa7zIjn1G-8itYUi-64" style="edgeStyle=orthogonalEdgeStyle;rounded=0;orthogonalLoop=1;jettySize=auto;html=1;entryX=0.5;entryY=0;entryDx=0;entryDy=0;" edge="1" parent="1" source="y-nhNa7zIjn1G-8itYUi-63" target="y-nhNa7zIjn1G-8itYUi-49">
          <mxGeometry relative="1" as="geometry">
            <Array as="points">
              <mxPoint x="1185" y="1220" />
              <mxPoint x="825" y="1220" />
            </Array>
          </mxGeometry>
        </mxCell>
        <mxCell id="y-nhNa7zIjn1G-8itYUi-65" value="&lt;font style=&quot;font-size: 12px;&quot;&gt;否&lt;/font&gt;" style="edgeLabel;html=1;align=center;verticalAlign=middle;resizable=0;points=[];" vertex="1" connectable="0" parent="y-nhNa7zIjn1G-8itYUi-64">
          <mxGeometry x="0.0189" y="1" relative="1" as="geometry">
            <mxPoint as="offset" />
          </mxGeometry>
        </mxCell>
        <mxCell id="y-nhNa7zIjn1G-8itYUi-66" value="" style="edgeStyle=orthogonalEdgeStyle;rounded=0;orthogonalLoop=1;jettySize=auto;html=1;" edge="1" parent="1" source="y-nhNa7zIjn1G-8itYUi-63" target="y-nhNa7zIjn1G-8itYUi-47">
          <mxGeometry relative="1" as="geometry" />
        </mxCell>
        <mxCell id="y-nhNa7zIjn1G-8itYUi-68" value="是" style="edgeLabel;html=1;align=center;verticalAlign=middle;resizable=0;points=[];" vertex="1" connectable="0" parent="y-nhNa7zIjn1G-8itYUi-66">
          <mxGeometry x="-0.175" relative="1" as="geometry">
            <mxPoint y="1" as="offset" />
          </mxGeometry>
        </mxCell>
        <mxCell id="y-nhNa7zIjn1G-8itYUi-63" value="执行超时或者队列为空" style="rhombus;whiteSpace=wrap;html=1;" vertex="1" parent="1">
          <mxGeometry x="1115" y="1282.5" width="150" height="65" as="geometry" />
        </mxCell>
        <mxCell id="y-nhNa7zIjn1G-8itYUi-69" value="任务列表是否为空" style="rhombus;whiteSpace=wrap;html=1;" vertex="1" parent="1">
          <mxGeometry x="1495" y="1282.5" width="150" height="65" as="geometry" />
        </mxCell>
        <mxCell id="y-nhNa7zIjn1G-8itYUi-84" value="" style="edgeStyle=orthogonalEdgeStyle;rounded=0;orthogonalLoop=1;jettySize=auto;html=1;" edge="1" parent="1" source="y-nhNa7zIjn1G-8itYUi-77" target="y-nhNa7zIjn1G-8itYUi-79">
          <mxGeometry relative="1" as="geometry" />
        </mxCell>
        <mxCell id="y-nhNa7zIjn1G-8itYUi-92" value="&lt;span style=&quot;font-size: 12px;&quot;&gt;注册任务&lt;/span&gt;" style="edgeLabel;html=1;align=center;verticalAlign=middle;resizable=0;points=[];" vertex="1" connectable="0" parent="y-nhNa7zIjn1G-8itYUi-84">
          <mxGeometry x="-0.1714" y="-1" relative="1" as="geometry">
            <mxPoint as="offset" />
          </mxGeometry>
        </mxCell>
        <mxCell id="y-nhNa7zIjn1G-8itYUi-77" value="scheduleCallback" style="rounded=1;whiteSpace=wrap;html=1;" vertex="1" parent="1">
          <mxGeometry x="575" y="1500" width="150" height="60" as="geometry" />
        </mxCell>
        <mxCell id="y-nhNa7zIjn1G-8itYUi-79" value="taskQueue" style="shape=cylinder3;whiteSpace=wrap;html=1;boundedLbl=1;backgroundOutline=1;size=15;fillColor=#d5e8d4;strokeColor=#82b366;" vertex="1" parent="1">
          <mxGeometry x="795" y="1490" width="60" height="80" as="geometry" />
        </mxCell>
        <mxCell id="y-nhNa7zIjn1G-8itYUi-89" value="" style="edgeStyle=orthogonalEdgeStyle;rounded=0;orthogonalLoop=1;jettySize=auto;html=1;" edge="1" parent="1" source="y-nhNa7zIjn1G-8itYUi-86" target="y-nhNa7zIjn1G-8itYUi-77">
          <mxGeometry relative="1" as="geometry" />
        </mxCell>
        <mxCell id="y-nhNa7zIjn1G-8itYUi-94" value="&lt;font style=&quot;font-size: 12px;&quot;&gt;触发渲染&lt;/font&gt;" style="edgeLabel;html=1;align=center;verticalAlign=middle;resizable=0;points=[];" vertex="1" connectable="0" parent="y-nhNa7zIjn1G-8itYUi-89">
          <mxGeometry x="-0.3" y="1" relative="1" as="geometry">
            <mxPoint y="-1" as="offset" />
          </mxGeometry>
        </mxCell>
        <mxCell id="y-nhNa7zIjn1G-8itYUi-86" value="ensureRootIsScheduled" style="rounded=1;whiteSpace=wrap;html=1;" vertex="1" parent="1">
          <mxGeometry x="575" y="1400" width="150" height="60" as="geometry" />
        </mxCell>
        <mxCell id="y-nhNa7zIjn1G-8itYUi-111" value="" style="edgeStyle=orthogonalEdgeStyle;rounded=0;orthogonalLoop=1;jettySize=auto;html=1;" edge="1" parent="1" source="y-nhNa7zIjn1G-8itYUi-99" target="y-nhNa7zIjn1G-8itYUi-103">
          <mxGeometry relative="1" as="geometry" />
        </mxCell>
        <mxCell id="y-nhNa7zIjn1G-8itYUi-99" value="performConcurrentWorkOnRoot" style="rounded=1;whiteSpace=wrap;html=1;" vertex="1" parent="1">
          <mxGeometry x="585" y="1677.5" width="195" height="60" as="geometry" />
        </mxCell>
        <mxCell id="y-nhNa7zIjn1G-8itYUi-115" value="" style="edgeStyle=orthogonalEdgeStyle;rounded=0;orthogonalLoop=1;jettySize=auto;html=1;" edge="1" parent="1" source="y-nhNa7zIjn1G-8itYUi-103" target="y-nhNa7zIjn1G-8itYUi-113">
          <mxGeometry relative="1" as="geometry" />
        </mxCell>
        <mxCell id="y-nhNa7zIjn1G-8itYUi-103" value="fiber构建workLoop" style="rounded=1;whiteSpace=wrap;html=1;fillColor=#f8cecc;strokeColor=#b85450;" vertex="1" parent="1">
          <mxGeometry x="820" y="1677.5" width="145" height="60" as="geometry" />
        </mxCell>
        <mxCell id="y-nhNa7zIjn1G-8itYUi-117" value="" style="edgeStyle=orthogonalEdgeStyle;rounded=0;orthogonalLoop=1;jettySize=auto;html=1;" edge="1" parent="1" source="y-nhNa7zIjn1G-8itYUi-104" target="y-nhNa7zIjn1G-8itYUi-112">
          <mxGeometry relative="1" as="geometry" />
        </mxCell>
        <mxCell id="y-nhNa7zIjn1G-8itYUi-104" value="结束一次fiber构建任务" style="rounded=1;whiteSpace=wrap;html=1;" vertex="1" parent="1">
          <mxGeometry x="1390" y="1677.5" width="140" height="60" as="geometry" />
        </mxCell>
        <mxCell id="y-nhNa7zIjn1G-8itYUi-110" value="" style="edgeStyle=orthogonalEdgeStyle;rounded=0;orthogonalLoop=1;jettySize=auto;html=1;" edge="1" parent="1" source="y-nhNa7zIjn1G-8itYUi-105" target="y-nhNa7zIjn1G-8itYUi-104">
          <mxGeometry relative="1" as="geometry" />
        </mxCell>
        <mxCell id="y-nhNa7zIjn1G-8itYUi-120" value="&lt;font style=&quot;font-size: 12px;&quot;&gt;是&lt;/font&gt;" style="edgeLabel;html=1;align=center;verticalAlign=middle;resizable=0;points=[];" vertex="1" connectable="0" parent="y-nhNa7zIjn1G-8itYUi-110">
          <mxGeometry x="-0.4215" y="1" relative="1" as="geometry">
            <mxPoint as="offset" />
          </mxGeometry>
        </mxCell>
        <mxCell id="y-nhNa7zIjn1G-8itYUi-105" value="执行超时或构建完成" style="rhombus;whiteSpace=wrap;html=1;" vertex="1" parent="1">
          <mxGeometry x="1175" y="1675" width="150" height="65" as="geometry" />
        </mxCell>
        <mxCell id="y-nhNa7zIjn1G-8itYUi-112" value="任务列表是否为空" style="rhombus;whiteSpace=wrap;html=1;" vertex="1" parent="1">
          <mxGeometry x="1565" y="1675" width="150" height="65" as="geometry" />
        </mxCell>
        <mxCell id="y-nhNa7zIjn1G-8itYUi-116" value="" style="edgeStyle=orthogonalEdgeStyle;rounded=0;orthogonalLoop=1;jettySize=auto;html=1;" edge="1" parent="1" source="y-nhNa7zIjn1G-8itYUi-113" target="y-nhNa7zIjn1G-8itYUi-105">
          <mxGeometry relative="1" as="geometry" />
        </mxCell>
        <mxCell id="y-nhNa7zIjn1G-8itYUi-113" value="performUnitOfWork" style="rounded=1;whiteSpace=wrap;html=1;" vertex="1" parent="1">
          <mxGeometry x="1010" y="1677.5" width="130" height="60" as="geometry" />
        </mxCell>
        <mxCell id="y-nhNa7zIjn1G-8itYUi-118" style="edgeStyle=orthogonalEdgeStyle;rounded=0;orthogonalLoop=1;jettySize=auto;html=1;entryX=0.437;entryY=-0.003;entryDx=0;entryDy=0;entryPerimeter=0;" edge="1" parent="1" source="y-nhNa7zIjn1G-8itYUi-105" target="y-nhNa7zIjn1G-8itYUi-103">
          <mxGeometry relative="1" as="geometry">
            <Array as="points">
              <mxPoint x="1250" y="1620" />
              <mxPoint x="883" y="1620" />
            </Array>
          </mxGeometry>
        </mxCell>
        <mxCell id="y-nhNa7zIjn1G-8itYUi-119" value="&lt;font style=&quot;font-size: 13px;&quot;&gt;否&lt;/font&gt;" style="edgeLabel;html=1;align=center;verticalAlign=middle;resizable=0;points=[];" vertex="1" connectable="0" parent="y-nhNa7zIjn1G-8itYUi-118">
          <mxGeometry x="0.0094" y="-5" relative="1" as="geometry">
            <mxPoint as="offset" />
          </mxGeometry>
        </mxCell>
        <mxCell id="y-nhNa7zIjn1G-8itYUi-121" style="edgeStyle=orthogonalEdgeStyle;rounded=0;orthogonalLoop=1;jettySize=auto;html=1;entryX=0.625;entryY=0.972;entryDx=0;entryDy=0;entryPerimeter=0;" edge="1" parent="1" source="y-nhNa7zIjn1G-8itYUi-112" target="y-nhNa7zIjn1G-8itYUi-50">
          <mxGeometry relative="1" as="geometry">
            <Array as="points">
              <mxPoint x="1640" y="1590" />
              <mxPoint x="1010" y="1590" />
            </Array>
          </mxGeometry>
        </mxCell>
        <mxCell id="y-nhNa7zIjn1G-8itYUi-122" value="&lt;font style=&quot;font-size: 13px;&quot;&gt;未完成，返回&lt;span style=&quot;text-wrap: wrap; background-color: rgb(251, 251, 251);&quot;&gt;performConcurrentWorkOnRoot&lt;/span&gt;&lt;/font&gt;" style="edgeLabel;html=1;align=center;verticalAlign=middle;resizable=0;points=[];" vertex="1" connectable="0" parent="y-nhNa7zIjn1G-8itYUi-121">
          <mxGeometry x="-0.1314" y="1" relative="1" as="geometry">
            <mxPoint as="offset" />
          </mxGeometry>
        </mxCell>
        <mxCell id="y-nhNa7zIjn1G-8itYUi-123" value="&lt;div style=&quot;text-align: center;&quot;&gt;&lt;span style=&quot;background-color: initial; text-wrap: nowrap;&quot;&gt;&lt;font style=&quot;font-size: 13px;&quot; color=&quot;#ff3333&quot;&gt;fiber构建&lt;/font&gt;&lt;/span&gt;&lt;/div&gt;" style="text;whiteSpace=wrap;html=1;" vertex="1" parent="1">
          <mxGeometry x="595" y="1650" width="130" height="40" as="geometry" />
        </mxCell>
        <mxCell id="y-nhNa7zIjn1G-8itYUi-124" value="&lt;div style=&quot;text-align: center;&quot;&gt;&lt;font size=&quot;1&quot; color=&quot;#ff3333&quot;&gt;&lt;span style=&quot;text-wrap: nowrap; font-size: 13px;&quot;&gt;scheduler调度&lt;/span&gt;&lt;/font&gt;&lt;/div&gt;" style="text;whiteSpace=wrap;html=1;" vertex="1" parent="1">
          <mxGeometry x="595" y="1350" width="130" height="40" as="geometry" />
        </mxCell>
      </root>
    </mxGraphModel>
  </diagram>
</mxfile>
